<svg id="visual" viewBox="0 0 900 600" width="900" height="600" xmlns="http://www.w3.org/2000/svg" xmlns:xlink="http://www.w3.org/1999/xlink" version="1.1"><rect x="0" y="0" width="900" height="600" fill="#191919"></rect><path d="M0 192L30 193.7C60 195.3 120 198.7 180 201.7C240 204.7 300 207.3 360 201.5C420 195.7 480 181.3 540 186.7C600 192 660 217 720 233.2C780 249.3 840 256.7 870 260.3L900 264L900 601L870 601C840 601 780 601 720 601C660 601 600 601 540 601C480 601 420 601 360 601C300 601 240 601 180 601C120 601 60 601 30 601L0 601Z" fill="#393939"></path><path d="M0 330L30 334.5C60 339 120 348 180 344C240 340 300 323 360 314.3C420 305.7 480 305.3 540 305C600 304.7 660 304.3 720 295C780 285.7 840 267.3 870 258.2L900 249L900 601L870 601C840 601 780 601 720 601C660 601 600 601 540 601C480 601 420 601 360 601C300 601 240 601 180 601C120 601 60 601 30 601L0 601Z" fill="#343434"></path><path d="M0 436L30 423.8C60 411.7 120 387.3 180 379.2C240 371 300 379 360 392C420 405 480 423 540 415C600 407 660 373 720 366C780 359 840 379 870 389L900 399L900 601L870 601C840 601 780 601 720 601C660 601 600 601 540 601C480 601 420 601 360 601C300 601 240 601 180 601C120 601 60 601 30 601L0 601Z" fill="#2e2e2e"></path><path d="M0 480L30 479.5C60 479 120 478 180 480.3C240 482.7 300 488.3 360 488C420 487.7 480 481.3 540 477.7C600 474 660 473 720 477.5C780 482 840 492 870 497L900 502L900 601L870 601C840 601 780 601 720 601C660 601 600 601 540 601C480 601 420 601 360 601C300 601 240 601 180 601C120 601 60 601 30 601L0 601Z" fill="#292929"></path></svg>